<svg width="73" height="156" viewBox="0 0 73 156" fill="none" xmlns="http://www.w3.org/2000/svg">
<path d="M38.5 33.4998C37.8333 33.3331 35.9 31.9998 33.5 27.9998V27.4998H38.5C38.5 27.4998 40.25 30 40.5 30.4998C42.1005 33.6995 39.8333 33.8331 38.5 33.4998Z" stroke="#FF0000"/>
<line x1="35.4997" y1="39.9573" x2="36.4997" y2="121.957" stroke="black" stroke-width="7"/>
<circle cx="36" cy="22" r="19.5" stroke="black" stroke-width="5"/>
<line x1="36.5883" y1="61.9417" x2="1.58835" y2="68.9417" stroke="black" stroke-width="6"/>
<line y1="-3" x2="35.6931" y2="-3" transform="matrix(0.980581 0.196116 0.196116 -0.980581 38 60)" stroke="black" stroke-width="6"/>
<line x1="37.4387" y1="118.51" x2="2.43875" y2="152.51" stroke="black" stroke-width="7"/>
<line y1="-3.5" x2="48.7955" y2="-3.5" transform="matrix(0.717279 0.696786 0.696786 -0.717279 36 116)" stroke="black" stroke-width="7"/>
<line x1="32.3628" y1="13.732" x2="26.3382" y2="21.5233" stroke="black"/>
<line x1="26.0503" y1="13.6255" x2="32.3949" y2="21.355" stroke="black"/>
<line y1="-0.5" x2="9.84886" y2="-0.5" transform="matrix(0.617565 0.78652 0.78652 -0.617565 39.9391 13.4694)" stroke="black"/>
<line y1="-0.5" x2="10" y2="-0.5" transform="matrix(-0.628697 0.77765 0.77765 0.628697 46.2462 13.9391)" stroke="black"/>
<line x1="29" y1="27.5" x2="43" y2="27.5" stroke="black"/>
<path d="M38.5 33.4998C37.8333 33.3331 35.9 31.9998 33.5 27.9998V27.4998H38.5C38.5 27.4998 40.25 30 40.5 30.4998C42.1005 33.6995 39.8333 33.8331 38.5 33.4998Z" stroke="#FF0000"/>
<line x1="35.4997" y1="39.9573" x2="36.4997" y2="121.957" stroke="black" stroke-width="7"/>
<circle cx="36" cy="22" r="19.5" stroke="black" stroke-width="5"/>
<line x1="36.5883" y1="61.9417" x2="1.58835" y2="68.9417" stroke="black" stroke-width="6"/>
<line y1="-3" x2="35.6931" y2="-3" transform="matrix(0.980581 0.196116 0.196116 -0.980581 38 60)" stroke="black" stroke-width="6"/>
<line x1="37.4387" y1="118.51" x2="2.43875" y2="152.51" stroke="black" stroke-width="7"/>
<line y1="-3.5" x2="48.7955" y2="-3.5" transform="matrix(0.717279 0.696786 0.696786 -0.717279 36 116)" stroke="black" stroke-width="7"/>
<line x1="32.3628" y1="13.732" x2="26.3382" y2="21.5233" stroke="black"/>
<line x1="26.0503" y1="13.6255" x2="32.3949" y2="21.355" stroke="black"/>
<line y1="-0.5" x2="9.84886" y2="-0.5" transform="matrix(0.617565 0.78652 0.78652 -0.617565 39.9391 13.4694)" stroke="black"/>
<line y1="-0.5" x2="10" y2="-0.5" transform="matrix(-0.628697 0.77765 0.77765 0.628697 46.2462 13.9391)" stroke="black"/>
<line x1="29" y1="27.5" x2="43" y2="27.5" stroke="black"/>
</svg>
