<svg width="293" height="420" viewBox="0 0 293 420" fill="none" xmlns="http://www.w3.org/2000/svg">
<path d="M147.5 284.5C146.833 284.333 144.9 283 142.5 279V278.5H147.5C147.5 278.5 149.25 281 149.5 281.5C151.101 284.7 148.833 284.833 147.5 284.5Z" stroke="#FF0000"/>
<line x1="144.5" y1="290.957" x2="145.5" y2="372.957" stroke="black" stroke-width="7"/>
<circle cx="145" cy="273" r="19.5" stroke="black" stroke-width="5"/>
<line x1="145.588" y1="312.942" x2="110.588" y2="319.942" stroke="black" stroke-width="6"/>
<line y1="-3" x2="35.6931" y2="-3" transform="matrix(0.980581 0.196116 0.196116 -0.980581 147 311)" stroke="black" stroke-width="6"/>
<line x1="146.439" y1="369.51" x2="111.439" y2="403.51" stroke="black" stroke-width="7"/>
<line y1="-3.5" x2="48.7955" y2="-3.5" transform="matrix(0.717279 0.696786 0.696786 -0.717279 145 367)" stroke="black" stroke-width="7"/>
<line x1="141.363" y1="264.732" x2="135.338" y2="272.523" stroke="black"/>
<line x1="135.05" y1="264.625" x2="141.395" y2="272.355" stroke="black"/>
<line y1="-0.5" x2="9.84886" y2="-0.5" transform="matrix(0.617565 0.78652 0.78652 -0.617565 148.939 264.469)" stroke="black"/>
<line y1="-0.5" x2="10" y2="-0.5" transform="matrix(-0.628697 0.77765 0.77765 0.628697 155.246 264.939)" stroke="black"/>
<line x1="138" y1="278.5" x2="152" y2="278.5" stroke="black"/>
<ellipse cx="144" cy="399" rx="60" ry="21" fill="#FFFB9E"/>
<line x1="86.5204" y1="399.682" x2="124.52" y2="103.682" stroke="#FFFB9E" stroke-width="5"/>
<line x1="201.52" y1="400.317" x2="164.52" y2="111.317" stroke="#FFFB9E" stroke-width="5"/>
<ellipse cx="147" cy="70.5" rx="146" ry="37.5" fill="#656565"/>
<ellipse cx="147" cy="89.5" rx="146" ry="37.5" fill="#656565"/>
<ellipse cx="147.5" cy="44" rx="38.5" ry="44" fill="#D9D9D9"/>
<path d="M109 70V44H186V70H109Z" fill="#D9D9D9"/>
<rect x="1" y="70" width="292" height="19" fill="#656565"/>
<path d="M292.5 69C248 117.5 8 99 1 69V88.5C1 135.5 271.5 145 292.5 92V69Z" fill="#353535" stroke="#353535"/>
</svg>
