<svg width="474" height="221" viewBox="0 0 474 221" fill="none" xmlns="http://www.w3.org/2000/svg">
<path d="M260.5 7.5L206 88L209.5 164.5" stroke="#AF93A8" stroke-width="2"/>
<path d="M64.0726 164.5L123.073 154L320.573 157.5C325.073 158.5 335.373 160.5 340.573 160.5C347.073 160.5 361.573 164 367.073 166.5C371.473 168.5 400.239 170.333 414.073 171C422.573 175.5 431.573 174 440.073 174C448.573 174 453.573 178.5 462.573 184C469.773 188.4 446.906 188.833 434.573 188.5C446.173 192.5 443.073 194.167 440.073 194.5L390.073 198C383.906 200.333 364.073 205.8 334.073 209C296.573 213 266.073 204 234.073 209C202.073 214 133.073 202 79.5726 198C26.0726 194 3.57264 184.5 11.5726 184C17.9726 183.6 49.2393 170.833 64.0726 164.5Z" fill="#B5896F" stroke="#B5896F" stroke-width="20"/>
<path d="M75 159L85 149.5C89 145.7 113.333 143.583 125 143L321 151C329.167 152 345.5 154.3 345.5 155.5C371.9 154.3 392.167 160.333 399 163.5C395.8 167.5 388.333 168.5 385 168.5C389 169.3 391 171.5 391.5 172.5C388.5 176.5 370.5 174 369 174C364.6 176.8 353.167 176.167 348 175.5L355.5 178.5C353.5 183.3 337.333 182.833 329.5 182C321 186.5 295 186 285.5 189C276 192 245 186 243.5 186C242.3 186 233 183.333 228.5 182C227.167 183.333 224.7 186 225.5 186C226.5 186 209.5 191 196.5 186C183.5 181 158 184 141.5 182C128.3 180.4 121 175 119 172.5C99 176.5 92.3333 170.833 91.5 167.5C79.5 167.5 75.5 161.833 75 159Z" fill="#48774C" stroke="#48774C" stroke-width="2"/>
<path d="M204 86L208 166H321V154V86L260 4L204 86Z" fill="#DD8798" stroke="#DD8798" stroke-width="2"/>
<path d="M226 109L214.5 105V129L226 131V109Z" fill="#F0B7AE" stroke="#F0B7AE" stroke-width="2"/>
<path d="M260.5 105.5L249.5 108L251 131.5L262.5 130.5L260.5 105.5Z" fill="#DEA8A6"/>
<path d="M227 108H249.5M249.5 108L260.5 105.5L262.5 130.5L251 131.5M249.5 108L251 131.5M251 131.5H227" stroke="#DEA8A6" stroke-width="2"/>
<path d="M248 109.5H227.5V129.5H249.5L248 109.5Z" fill="#2F5487" stroke="#2F5487" stroke-width="2"/>
<path d="M203 88L141 93.5L145.5 154L207 166L203 88Z" fill="#B44959" stroke="#B44949" stroke-width="2"/>
<path d="M180.5 38.5L138 92L202.5 87.5L260 3L225.5 12L220.5 24.5L202.5 52.5H180.5V38.5Z" fill="#48202B" stroke="#48202B" stroke-width="2"/>
<path d="M182.5 29L194 14.5L201 25.5V51.5H182.5V29Z" fill="#B44959" stroke="#B44959" stroke-width="2"/>
<path d="M224.5 12H194.5L202 24.5H219.5L224.5 12Z" fill="#A9202D" stroke="#A9202D" stroke-width="2"/>
<path d="M202 52.5V25.5H220L202 52.5Z" fill="#DD8798" stroke="#DD8798" stroke-width="2"/>
<path d="M187.5 31L195.5 30V39.25V48.5H187.5V39.75V31Z" fill="#233863"/>
<path d="M195.5 39.25V48.5H187.5V39.75M195.5 39.25V30L187.5 31V39.75M195.5 39.25L187.5 39.75" stroke="white" stroke-width="2"/>
<path d="M280 103.343L265 91V107.971L280 109V103.343Z" fill="#AF93A8" stroke="#AF93A8" stroke-width="2"/>
<path d="M334.5 103.5H282.5V108L333.5 107L334.5 103.5Z" fill="#F0B7AE" stroke="#F0B7AE" stroke-width="2"/>
<path d="M281 103L265 91V89H321L335.5 103H281Z" fill="#CD2025"/>
<path d="M288.5 114H309.5V133.75V153.5H288.5V133.75V114Z" fill="#233863"/>
<path d="M288.5 133.75V153.5H309.5V133.75M288.5 133.75V114H309.5V133.75M288.5 133.75H309.5" stroke="#6F8975" stroke-width="2"/>
<path d="M283.5 164L282.5 109H287V156H331H332.5V164H283.5Z" fill="#F0B7AE"/>
<path d="M327 154.5V108H331V154.5H327Z" fill="#F0B7AE"/>
<path d="M283.5 164L282.5 109H287V156H331H332.5V164H283.5Z" stroke="#F0B7AE" stroke-width="2"/>
<path d="M327 154.5V108H331V154.5H327Z" stroke="#F0B7AE" stroke-width="2"/>
<path d="M265 164.5H281V156L265 155V164.5Z" fill="#AF93A8" stroke="#AF93A8" stroke-width="2"/>
<path d="M261.5 2L324 87.5" stroke="#48202B" stroke-width="4"/>
<path d="M184 105V137.5L157 135V105H184Z" fill="#233863" stroke="white" stroke-width="2"/>
</svg>
